<svg width="157" height="156" viewBox="0 0 157 156" fill="none" xmlns="http://www.w3.org/2000/svg">
  <path
    d="M35.8382 119.792C32.0791 116.033 29.8971 108.31 33.3132 95.9922C36.628 84.0394 44.7768 70.0597 57.4182 57.4183C70.0597 44.7768 84.0394 36.628 95.9922 33.3132C108.31 29.8971 116.033 32.0791 119.792 35.8382L127.512 28.1174C111.984 12.5886 77.1446 22.2503 49.6975 49.6975C22.2503 77.1446 12.5886 111.984 28.1174 127.512L35.8382 119.792Z"
    fill="#D1D4DB" />
  <path fill-rule="evenodd" clip-rule="evenodd"
    d="M122.959 96.2618C119.644 84.309 111.495 70.3293 98.8537 57.6879C86.2123 45.0464 72.2325 36.8976 60.2797 33.5828C47.9619 30.1667 40.2395 32.3487 36.4804 36.1078C32.7214 39.8668 30.5394 47.5892 33.9554 59.9071C37.2702 71.8599 45.419 85.8396 58.0605 98.4811C70.702 111.123 84.6817 119.271 96.6345 122.586C108.952 126.002 116.675 123.82 120.434 120.061C124.193 116.302 126.375 108.58 122.959 96.2618ZM128.155 127.782C143.683 112.253 134.022 77.4142 106.575 49.9671C79.1273 22.5199 44.2884 12.8582 28.7596 28.387C13.2309 43.9158 22.8926 78.7547 50.3397 106.202C77.7869 133.649 112.626 143.311 128.155 127.782Z"
    fill="#29FFB2" />
  <path
    d="M119.79 35.8382C123.549 39.5972 125.731 47.3196 122.315 59.6375C119 71.5903 110.851 85.57 98.2096 98.2115C85.5681 110.853 71.5884 119.002 59.6356 122.317C47.3177 125.733 39.5953 123.551 35.8363 119.792L28.1155 127.512C43.6443 143.041 78.4832 133.379 105.93 105.932C133.377 78.4851 143.039 43.6462 127.51 28.1174L119.79 35.8382Z"
    fill="#D1D4DB" />
  <rect x="57.6337" y="77.2435" width="29.2602" height="29.2602" rx="8" transform="rotate(-45 57.6337 77.2435)"
    fill="#29FFB2" />
</svg>
